<!-- Generated by IcoMoon.io -->
<svg version="1.1" xmlns="http://www.w3.org/2000/svg" width="678" height="1024" viewBox="0 0 678 1024">
<title></title>
<g id="icomoon-ignore">
</g>
<path fill="#ff6e00" d="M338.23 0c-186.182 0-338.23 152.048-338.23 338.23 0 277.721 307.2 668.703 319.612 678.012 6.206 4.655 12.412 6.206 18.618 6.206s13.964-1.552 18.618-6.206c12.412-10.861 319.612-412.703 319.612-678.012 1.552-186.182-150.497-338.23-338.23-338.23zM338.23 538.376c-119.467 0-215.661-96.194-215.661-215.661s96.194-215.661 215.661-215.661 215.661 96.194 215.661 215.661c0 119.467-96.194 215.661-215.661 215.661z"></path>
</svg>
