<?xml version="1.0" encoding="utf-8"?>
<!-- Designed by Vexels.com - 2016 All Rights Reserved - https://vexels.com/terms-and-conditions/  -->

<svg version="1.1" id="Layer_1" xmlns="http://www.w3.org/2000/svg" xmlns:xlink="http://www.w3.org/1999/xlink" x="0px" y="0px"
	 width="1200px" height="1200px" viewBox="0 0 1200 1200" enable-background="new 0 0 1200 1200" xml:space="preserve">
<g>
	<path fill="#5E5D5C" d="M941.806,1058.319c0,50.59-153.035,91.681-341.793,91.681c-188.783,0-341.818-41.092-341.818-91.681
		c0-50.59,153.036-91.635,341.818-91.635C788.771,966.684,941.806,1007.729,941.806,1058.319z"/>
	<path fill="#E95D0C" d="M600.013,50C411.23,50,258.194,188.528,258.194,359.386c0,234.91,265.84,372.436,341.818,698.932
		c75.957-326.496,341.793-464.022,341.793-698.932C941.806,188.528,788.771,50,600.013,50z M600.013,502.615
		c-83.879,0-151.936-61.544-151.936-137.501s68.057-137.523,151.936-137.523c83.903,0,151.889,61.566,151.889,137.523
		S683.916,502.615,600.013,502.615z"/>
</g>
</svg>
